<?xml version="1.0" encoding="UTF-8" standalone="no"?>
<!-- Created with Inkscape (http://www.inkscape.org/) -->

<svg
   xmlns:dc="http://purl.org/dc/elements/1.1/"
   xmlns:cc="http://creativecommons.org/ns#"
   xmlns:rdf="http://www.w3.org/1999/02/22-rdf-syntax-ns#"
   xmlns:svg="http://www.w3.org/2000/svg"
   xmlns="http://www.w3.org/2000/svg"
   xmlns:sodipodi="http://sodipodi.sourceforge.net/DTD/sodipodi-0.dtd"
   xmlns:inkscape="http://www.inkscape.org/namespaces/inkscape"
   width="88.805946mm"
   height="16.648424mm"
   viewBox="0 0 314.66674 58.990479"
   id="svg2"
   version="1.1"
   inkscape:version="0.91 r13725"
   sodipodi:docname="logo-pathed.svg">
  <defs
     id="defs4" />
  <sodipodi:namedview
     id="base"
     pagecolor="#ffffff"
     bordercolor="#666666"
     borderopacity="1.0"
     inkscape:pageopacity="0.0"
     inkscape:pageshadow="2"
     inkscape:zoom="2.8"
     inkscape:cx="74.923261"
     inkscape:cy="-48.893793"
     inkscape:document-units="px"
     inkscape:current-layer="layer1"
     showgrid="false"
     fit-margin-top="0"
     fit-margin-left="0"
     fit-margin-right="0"
     fit-margin-bottom="0"
     inkscape:window-width="1920"
     inkscape:window-height="996"
     inkscape:window-x="1912"
     inkscape:window-y="112"
     inkscape:window-maximized="1" />
  <metadata
     id="metadata7">
    <rdf:RDF>
      <cc:Work
         rdf:about="">
        <dc:format>image/svg+xml</dc:format>
        <dc:type
           rdf:resource="http://purl.org/dc/dcmitype/StillImage" />
        <dc:title></dc:title>
      </cc:Work>
    </rdf:RDF>
  </metadata>
  <g
     inkscape:label="Layer 1"
     inkscape:groupmode="layer"
     id="layer1"
     transform="translate(-26.732876,-468.26782)">
    <g
       style="font-style:normal;font-weight:normal;font-size:40px;line-height:125%;font-family:sans-serif;letter-spacing:0px;word-spacing:0px;fill:#000000;fill-opacity:1;stroke:none;stroke-width:1px;stroke-linecap:butt;stroke-linejoin:miter;stroke-opacity:1"
       id="text4136">
      <path
         d="m 59.600307,499.88403 -19.622802,0 0,26.76392 -13.244629,0 0,-58.25806 13.244629,0 0,24.26148 19.622802,0 0,-24.26148 13.122559,0 0,58.25806 -13.122559,0 0,-26.76392 z"
         style="font-style:normal;font-variant:normal;font-weight:normal;font-stretch:normal;font-size:125px;font-family:LilyUPC;-inkscape-font-specification:LilyUPC"
         id="path4143" />
      <path
         d="m 103.57614,526.64795 0,-4.36401 q -0.48828,1.12915 -3.2959,2.80761 -2.777101,1.67847 -9.46045,1.67847 -5.706787,-0.21362 -9.490967,-2.92969 -3.78418,-2.71606 -3.875732,-8.57544 0,-6.28662 4.486084,-9.42993 4.516601,-3.14331 13.519287,-3.8147 4.15039,-0.33569 6.378178,-2.10571 2.2583,-1.80054 2.2583,-4.02832 0,-2.2583 -2.0752,-3.87573 -2.044677,-1.61743 -5.554198,-1.61743 -7.232666,0 -11.260986,2.68554 -3.997803,2.65503 -5.249024,4.45557 l 1.739502,-8.27026 q 0,-0.21363 1.89209,-1.31226 1.922607,-1.09863 5.340576,-2.04468 3.417969,-0.97656 8.148193,-1.00708 9.643557,0 13.946537,3.2959 4.30298,3.26538 4.30298,8.57544 l 0,29.87671 -11.74927,0 z m -5.737307,-6.50024 q 5.737307,-1.5564 5.737307,-5.00489 l 0,-9.49096 q -0.0305,0.0915 -0.42725,0.88501 -0.39673,0.76293 -1.80054,1.52587 -1.403804,0.76294 -4.272457,1.09864 -4.882812,0.67138 -7.446289,2.19726 -2.563476,1.49536 -2.563476,5.15747 0.396728,4.24195 6.774902,4.24195 1.922608,0 3.997803,-0.61035 z"
         style="font-style:normal;font-variant:normal;font-weight:normal;font-stretch:normal;font-size:125px;font-family:LilyUPC;-inkscape-font-specification:LilyUPC"
         id="path4145" />
      <path
         d="m 152.58737,524.90845 q 0,0.24414 -3.54004,0.97656 -3.50952,0.73242 -8.97217,0.88501 -7.62939,0 -12.08496,-2.13623 -4.45557,-2.13623 -6.43921,-6.95801 -1.95312,-4.85229 -1.95312,-13.27515 0.24414,-6.71386 2.13623,-10.98632 1.9226,-4.27246 6.07299,-6.37818 4.18091,-2.13623 11.13892,-2.13623 4.42505,0.0916 7.93457,0.76294 3.54004,0.67139 5.06592,1.09863 l 1.25122,6.01197 q -1.12915,-0.57984 -4.15039,-1.43433 -3.02124,-0.85449 -7.59888,-0.94604 -6.01196,0 -7.9956,3.96728 -1.98365,3.96729 -1.98365,10.04028 0,7.32422 1.61744,11.93238 1.64794,4.57763 6.74438,4.94385 4.05884,0 6.98853,-0.70191 2.92968,-0.7019 4.6997,-1.52588 1.80054,-0.85449 1.80054,-1.0376 l -0.73242,6.89698 z"
         style="font-style:normal;font-variant:normal;font-weight:normal;font-stretch:normal;font-size:125px;font-family:LilyUPC;-inkscape-font-specification:LilyUPC"
         id="path4147" />
      <path
         d="m 157.6838,526.64795 0,-58.25806 11.6272,0 0,33.02002 18.89038,-16.38794 9.73511,0 -17.73071,14.86206 19.98901,26.76392 -12.75635,0 -14.98413,-19.86694 -3.14331,2.86865 0,16.99829 -11.6272,0 z"
         style="font-style:normal;font-variant:normal;font-weight:normal;font-stretch:normal;font-size:125px;font-family:LilyUPC;-inkscape-font-specification:LilyUPC"
         id="path4149" />
      <path
         d="m 226.37887,526.64795 0,-4.36401 q -0.48828,1.12915 -3.2959,2.80761 -2.7771,1.67847 -9.46045,1.67847 -5.70678,-0.21362 -9.49096,-2.92969 -3.78418,-2.71606 -3.87573,-8.57544 0,-6.28662 4.48608,-9.42993 4.5166,-3.14331 13.51929,-3.8147 4.15039,-0.33569 6.37817,-2.10571 2.2583,-1.80054 2.2583,-4.02832 0,-2.2583 -2.07519,-3.87573 -2.04468,-1.61743 -5.5542,-1.61743 -7.23267,0 -11.26099,2.68554 -3.9978,2.65503 -5.24902,4.45557 l 1.7395,-8.27026 q 0,-0.21363 1.89209,-1.31226 1.92261,-1.09863 5.34057,-2.04468 3.41797,-0.97656 8.1482,-1.00708 9.64355,0 13.94653,3.2959 4.30298,3.26538 4.30298,8.57544 l 0,29.87671 -11.74927,0 z m -5.7373,-6.50024 q 5.7373,-1.5564 5.7373,-5.00489 l 0,-9.49096 q -0.0305,0.0915 -0.42724,0.88501 -0.39673,0.76293 -1.80054,1.52587 -1.40381,0.76294 -4.27246,1.09864 -4.88281,0.67138 -7.44629,2.19726 -2.56348,1.49536 -2.56348,5.15747 0.39673,4.24195 6.7749,4.24195 1.92261,0 3.99781,-0.61035 z"
         style="fill:#34b9e3;fill-opacity:1"
         id="path4151" />
      <path
         d="m 243.25509,526.64795 0,-58.25806 11.50513,0 0,58.25806 -11.50513,0 z"
         style="fill:#34b9e3;fill-opacity:1"
         id="path4153" />
      <path
         d="m 260.46701,526.64795 0,-41.62598 11.62719,0 0,41.62598 -11.62719,0 z m 5.88989,-58.38013 q 3.11279,0 4.85229,1.95313 1.77002,1.95312 1.77002,4.66919 0,2.7771 -1.80053,4.76074 -1.77002,1.98364 -4.94385,1.98364 -3.05176,0 -4.8523,-1.98364 -1.80053,-2.01416 -1.80053,-4.63867 0,-2.68555 1.80053,-4.69971 1.80054,-2.04468 4.97437,-2.04468 z"
         style="fill:#34b9e3;fill-opacity:1"
         id="path4155" />
      <path
         d="m 287.56662,495.15381 q 0,2.41089 4.27246,3.63159 4.30298,1.19019 8.81958,2.2583 4.5166,1.0376 7.8125,3.54004 3.32641,2.47192 3.479,7.69043 0,7.62939 -4.11987,10.95581 -4.08936,3.32642 -11.90186,3.90625 -0.97656,0.12207 -2.99072,0.12207 -5.31006,0 -9.15527,-0.82397 -3.84522,-0.8545 -5.34058,-1.40381 l -1.61743,-7.26319 q 1.37329,0.94605 5.0354,2.38038 3.66211,1.43432 8.81958,1.49536 5.49316,0 7.44629,-1.64795 1.98364,-1.67847 2.07519,-5.21851 0,-4.08935 -2.7771,-5.40161 -2.74658,-1.31226 -8.94165,-2.53296 -6.16455,-1.2207 -9.30786,-3.50952 -3.11279,-2.28882 -3.11279,-8.05664 0.45776,-10.04028 15.86914,-10.74219 0.5188,0 1.43433,-0.061 0.91552,-0.061 1.31225,-0.061 5.58472,0 9.00269,0.79346 3.41797,0.79346 4.63867,1.31225 l 1.98364,6.74439 q -1.19018,-0.76294 -4.66919,-1.86157 -3.479,-1.12915 -9.42993,-1.12915 -4.02832,0 -6.28662,0.94604 -2.2583,0.91553 -2.34985,3.93677 z"
         style="fill:#34b9e3;fill-opacity:1"
         id="path4157" />
      <path
         d="m 333.49557,490.271 0,24.1394 q 0,3.60107 2.13623,5.12695 1.52588,1.22071 5.76782,1.22071 l 0,5.88989 q -0.36621,0.0305 -1.31225,0.061 -0.97656,0.061 -2.19727,0.061 -8.02612,0 -11.74927,-2.74658 -4.39453,-2.99073 -4.39453,-10.13184 l 0,-23.6206 -7.87353,0 0,-5.24903 7.87353,0 0,-16.63208 11.74927,0 0,16.63208 7.90405,0 0,5.24903 -7.90405,0 z"
         style="fill:#34b9e3;fill-opacity:1"
         id="path4159" />
    </g>
  </g>
</svg>
